<?xml version="1.0" encoding="UTF-8"?>
<!DOCTYPE svg PUBLIC "-//W3C//DTD SVG 1.1//EN" "http://www.w3.org/Graphics/SVG/1.1/DTD/svg11.dtd">
<svg xmlns="http://www.w3.org/2000/svg" version="1.1" width="533px" height="533px" style="shape-rendering:geometricPrecision; text-rendering:geometricPrecision; image-rendering:optimizeQuality; fill-rule:evenodd; clip-rule:evenodd" xmlns:xlink="http://www.w3.org/1999/xlink">
<g><path style="opacity:1" fill="#003c3b" d="M -0.5,-0.5 C 177.167,-0.5 354.833,-0.5 532.5,-0.5C 532.5,177.167 532.5,354.833 532.5,532.5C 354.833,532.5 177.167,532.5 -0.5,532.5C -0.5,354.833 -0.5,177.167 -0.5,-0.5 Z"/></g>
<g><path style="opacity:1" fill="#208281" d="M 32.5,32.5 C 188.167,32.5 343.833,32.5 499.5,32.5C 499.5,188.167 499.5,343.833 499.5,499.5C 343.833,499.5 188.167,499.5 32.5,499.5C 32.5,343.833 32.5,188.167 32.5,32.5 Z"/></g>
<g><path style="opacity:1" fill="#af0000" d="M 324.5,149.5 C 295.167,149.5 265.833,149.5 236.5,149.5C 236.5,139.5 236.5,129.5 236.5,119.5C 265.833,119.5 295.167,119.5 324.5,119.5C 324.5,129.5 324.5,139.5 324.5,149.5 Z"/></g>
<g><path style="opacity:1" fill="#af0000" d="M 236.5,149.5 C 236.5,159.167 236.5,168.833 236.5,178.5C 217.167,178.5 197.833,178.5 178.5,178.5C 178.5,168.833 178.5,159.167 178.5,149.5C 197.833,149.5 217.167,149.5 236.5,149.5 Z"/></g>
<g><path style="opacity:1" fill="#fe003d" d="M 236.5,149.5 C 265.833,149.5 295.167,149.5 324.5,149.5C 324.5,159.167 324.5,168.833 324.5,178.5C 343.833,178.5 363.167,178.5 382.5,178.5C 382.5,217.5 382.5,256.5 382.5,295.5C 372.833,295.5 363.167,295.5 353.5,295.5C 353.5,314.833 353.5,334.167 353.5,353.5C 343.833,353.5 334.167,353.5 324.5,353.5C 324.5,363.167 324.5,372.833 324.5,382.5C 275.833,382.5 227.167,382.5 178.5,382.5C 178.5,372.833 178.5,363.167 178.5,353.5C 168.833,353.5 159.167,353.5 149.5,353.5C 149.5,314.5 149.5,275.5 149.5,236.5C 159.167,236.5 168.833,236.5 178.5,236.5C 178.5,217.167 178.5,197.833 178.5,178.5C 197.833,178.5 217.167,178.5 236.5,178.5C 236.5,168.833 236.5,159.167 236.5,149.5 Z"/></g>
<g><path style="opacity:1" fill="#af0000" d="M 324.5,149.5 C 343.833,149.5 363.167,149.5 382.5,149.5C 382.5,159.167 382.5,168.833 382.5,178.5C 363.167,178.5 343.833,178.5 324.5,178.5C 324.5,168.833 324.5,159.167 324.5,149.5 Z"/></g>
<g><path style="opacity:1" fill="#af0000" d="M 178.5,178.5 C 178.5,197.833 178.5,217.167 178.5,236.5C 168.833,236.5 159.167,236.5 149.5,236.5C 149.5,217.167 149.5,197.833 149.5,178.5C 159.167,178.5 168.833,178.5 178.5,178.5 Z"/></g>
<g><path style="opacity:1" fill="#af0000" d="M 382.5,178.5 C 392.5,178.5 402.5,178.5 412.5,178.5C 412.5,217.5 412.5,256.5 412.5,295.5C 402.5,295.5 392.5,295.5 382.5,295.5C 382.5,256.5 382.5,217.5 382.5,178.5 Z"/></g>
<g><path style="opacity:1" fill="#fefffe" d="M 207.5,207.5 C 217.167,207.5 226.833,207.5 236.5,207.5C 236.5,217.167 236.5,226.833 236.5,236.5C 226.833,236.5 217.167,236.5 207.5,236.5C 207.5,226.833 207.5,217.167 207.5,207.5 Z"/></g>
<g><path style="opacity:1" fill="#af0000" d="M 149.5,236.5 C 149.5,275.5 149.5,314.5 149.5,353.5C 139.5,353.5 129.5,353.5 119.5,353.5C 119.5,314.5 119.5,275.5 119.5,236.5C 129.5,236.5 139.5,236.5 149.5,236.5 Z"/></g>
<g><path style="opacity:1" fill="#fefffe" d="M 324.5,236.5 C 334.167,236.5 343.833,236.5 353.5,236.5C 353.5,246.167 353.5,255.833 353.5,265.5C 343.833,265.5 334.167,265.5 324.5,265.5C 324.5,255.833 324.5,246.167 324.5,236.5 Z"/></g>
<g><path style="opacity:1" fill="#fefffe" d="M 178.5,265.5 C 188.167,265.5 197.833,265.5 207.5,265.5C 207.5,275.5 207.5,285.5 207.5,295.5C 197.833,295.5 188.167,295.5 178.5,295.5C 178.5,285.5 178.5,275.5 178.5,265.5 Z"/></g>
<g><path style="opacity:1" fill="#fefffe" d="M 295.5,295.5 C 305.167,295.5 314.833,295.5 324.5,295.5C 324.5,305.167 324.5,314.833 324.5,324.5C 314.833,324.5 305.167,324.5 295.5,324.5C 295.5,314.833 295.5,305.167 295.5,295.5 Z"/></g>
<g><path style="opacity:1" fill="#af0000" d="M 382.5,295.5 C 382.5,314.833 382.5,334.167 382.5,353.5C 372.833,353.5 363.167,353.5 353.5,353.5C 353.5,334.167 353.5,314.833 353.5,295.5C 363.167,295.5 372.833,295.5 382.5,295.5 Z"/></g>
<g><path style="opacity:1" fill="#af0000" d="M 149.5,353.5 C 159.167,353.5 168.833,353.5 178.5,353.5C 178.5,363.167 178.5,372.833 178.5,382.5C 168.833,382.5 159.167,382.5 149.5,382.5C 149.5,372.833 149.5,363.167 149.5,353.5 Z"/></g>
<g><path style="opacity:1" fill="#af0000" d="M 353.5,353.5 C 353.5,363.167 353.5,372.833 353.5,382.5C 343.833,382.5 334.167,382.5 324.5,382.5C 324.5,372.833 324.5,363.167 324.5,353.5C 334.167,353.5 343.833,353.5 353.5,353.5 Z"/></g>
<g><path style="opacity:1" fill="#af0000" d="M 178.5,382.5 C 227.167,382.5 275.833,382.5 324.5,382.5C 324.5,392.5 324.5,402.5 324.5,412.5C 275.833,412.5 227.167,412.5 178.5,412.5C 178.5,402.5 178.5,392.5 178.5,382.5 Z"/></g>
</svg>
